<mxfile host="app.diagrams.net" modified="2023-10-02T10:48:58.139Z" agent="Mozilla/5.0 (Windows NT 10.0; Win64; x64) AppleWebKit/537.36 (KHTML, like Gecko) Chrome/117.0.0.0 Safari/537.36" etag="6CSrNikYz1AdGVlovEoR" version="22.0.0" type="github">
  <diagram name="Page-1" id="yNhStviu_gVAS3m54d8R">
    <mxGraphModel dx="2062" dy="666" grid="1" gridSize="10" guides="1" tooltips="1" connect="1" arrows="1" fold="1" page="1" pageScale="1" pageWidth="827" pageHeight="1169" math="0" shadow="0">
      <root>
        <mxCell id="0" />
        <mxCell id="1" parent="0" />
        <mxCell id="pJhbr_ECn7s0jkGtvZ8r-1" value="LIBRO" style="rounded=1;whiteSpace=wrap;html=1;arcSize=0;" vertex="1" parent="1">
          <mxGeometry x="527" y="130" width="120" height="60" as="geometry" />
        </mxCell>
        <mxCell id="pJhbr_ECn7s0jkGtvZ8r-2" value="NJDM" style="rounded=1;whiteSpace=wrap;html=1;arcSize=50;" vertex="1" parent="1">
          <mxGeometry x="707" y="260" width="120" height="60" as="geometry" />
        </mxCell>
        <mxCell id="pJhbr_ECn7s0jkGtvZ8r-3" value="" style="endArrow=classic;startArrow=classic;html=1;rounded=0;entryX=1;entryY=1;entryDx=0;entryDy=0;" edge="1" parent="1" source="pJhbr_ECn7s0jkGtvZ8r-2" target="pJhbr_ECn7s0jkGtvZ8r-1">
          <mxGeometry width="50" height="50" relative="1" as="geometry">
            <mxPoint x="700" y="290" as="sourcePoint" />
            <mxPoint x="507" y="190" as="targetPoint" />
            <Array as="points" />
          </mxGeometry>
        </mxCell>
        <mxCell id="pJhbr_ECn7s0jkGtvZ8r-4" value="Ubicacion" style="rounded=1;whiteSpace=wrap;html=1;arcSize=50;" vertex="1" parent="1">
          <mxGeometry x="527" width="120" height="60" as="geometry" />
        </mxCell>
        <mxCell id="pJhbr_ECn7s0jkGtvZ8r-5" value="Autor" style="rounded=1;whiteSpace=wrap;html=1;arcSize=31;" vertex="1" parent="1">
          <mxGeometry x="527" y="260" width="120" height="60" as="geometry" />
        </mxCell>
        <mxCell id="pJhbr_ECn7s0jkGtvZ8r-6" value="Tema" style="rounded=1;whiteSpace=wrap;html=1;arcSize=50;" vertex="1" parent="1">
          <mxGeometry x="707" y="130" width="120" height="60" as="geometry" />
        </mxCell>
        <mxCell id="pJhbr_ECn7s0jkGtvZ8r-7" value="" style="endArrow=classic;startArrow=classic;html=1;rounded=0;exitX=0.5;exitY=0;exitDx=0;exitDy=0;entryX=0.5;entryY=1;entryDx=0;entryDy=0;" edge="1" parent="1" source="pJhbr_ECn7s0jkGtvZ8r-5" target="pJhbr_ECn7s0jkGtvZ8r-1">
          <mxGeometry width="50" height="50" relative="1" as="geometry">
            <mxPoint x="637" y="190" as="sourcePoint" />
            <mxPoint x="687" y="140" as="targetPoint" />
            <Array as="points" />
          </mxGeometry>
        </mxCell>
        <mxCell id="pJhbr_ECn7s0jkGtvZ8r-8" value="" style="endArrow=classic;startArrow=classic;html=1;rounded=0;exitX=1;exitY=0.5;exitDx=0;exitDy=0;entryX=0;entryY=0.5;entryDx=0;entryDy=0;" edge="1" parent="1" source="pJhbr_ECn7s0jkGtvZ8r-1" target="pJhbr_ECn7s0jkGtvZ8r-6">
          <mxGeometry width="50" height="50" relative="1" as="geometry">
            <mxPoint x="637" y="190" as="sourcePoint" />
            <mxPoint x="687" y="140" as="targetPoint" />
          </mxGeometry>
        </mxCell>
        <mxCell id="pJhbr_ECn7s0jkGtvZ8r-9" value="" style="endArrow=classic;startArrow=classic;html=1;rounded=0;entryX=0.5;entryY=1;entryDx=0;entryDy=0;exitX=0.5;exitY=0;exitDx=0;exitDy=0;" edge="1" parent="1" source="pJhbr_ECn7s0jkGtvZ8r-1" target="pJhbr_ECn7s0jkGtvZ8r-4">
          <mxGeometry width="50" height="50" relative="1" as="geometry">
            <mxPoint x="637" y="190" as="sourcePoint" />
            <mxPoint x="687" y="140" as="targetPoint" />
          </mxGeometry>
        </mxCell>
        <mxCell id="pJhbr_ECn7s0jkGtvZ8r-10" value="Correo" style="rounded=1;whiteSpace=wrap;html=1;arcSize=50;" vertex="1" parent="1">
          <mxGeometry x="527" y="360" width="120" height="60" as="geometry" />
        </mxCell>
        <mxCell id="pJhbr_ECn7s0jkGtvZ8r-12" value="" style="endArrow=classic;startArrow=classic;html=1;rounded=0;exitX=0.5;exitY=0;exitDx=0;exitDy=0;entryX=0.5;entryY=1;entryDx=0;entryDy=0;" edge="1" parent="1" source="pJhbr_ECn7s0jkGtvZ8r-10" target="pJhbr_ECn7s0jkGtvZ8r-5">
          <mxGeometry width="50" height="50" relative="1" as="geometry">
            <mxPoint x="637" y="180" as="sourcePoint" />
            <mxPoint x="687" y="130" as="targetPoint" />
          </mxGeometry>
        </mxCell>
        <mxCell id="pJhbr_ECn7s0jkGtvZ8r-26" style="edgeStyle=orthogonalEdgeStyle;rounded=0;orthogonalLoop=1;jettySize=auto;html=1;exitX=0.5;exitY=0;exitDx=0;exitDy=0;entryX=0.5;entryY=1;entryDx=0;entryDy=0;" edge="1" parent="1" source="pJhbr_ECn7s0jkGtvZ8r-13" target="pJhbr_ECn7s0jkGtvZ8r-23">
          <mxGeometry relative="1" as="geometry" />
        </mxCell>
        <mxCell id="pJhbr_ECn7s0jkGtvZ8r-13" value="Usuario" style="rounded=1;whiteSpace=wrap;html=1;" vertex="1" parent="1">
          <mxGeometry x="110" y="280" width="120" height="60" as="geometry" />
        </mxCell>
        <mxCell id="pJhbr_ECn7s0jkGtvZ8r-14" value="Nombre" style="rounded=1;whiteSpace=wrap;html=1;arcSize=50;" vertex="1" parent="1">
          <mxGeometry x="110" y="380" width="120" height="60" as="geometry" />
        </mxCell>
        <mxCell id="pJhbr_ECn7s0jkGtvZ8r-15" value="Correo" style="rounded=1;whiteSpace=wrap;html=1;arcSize=50;" vertex="1" parent="1">
          <mxGeometry x="-60" y="280" width="120" height="60" as="geometry" />
        </mxCell>
        <mxCell id="pJhbr_ECn7s0jkGtvZ8r-16" value="Edad" style="rounded=1;whiteSpace=wrap;html=1;arcSize=50;" vertex="1" parent="1">
          <mxGeometry x="-60" y="380" width="120" height="60" as="geometry" />
        </mxCell>
        <mxCell id="pJhbr_ECn7s0jkGtvZ8r-17" value="" style="endArrow=classic;startArrow=classic;html=1;rounded=0;entryX=0;entryY=1;entryDx=0;entryDy=0;exitX=1;exitY=0;exitDx=0;exitDy=0;" edge="1" parent="1" source="pJhbr_ECn7s0jkGtvZ8r-16" target="pJhbr_ECn7s0jkGtvZ8r-13">
          <mxGeometry width="50" height="50" relative="1" as="geometry">
            <mxPoint x="460" y="430" as="sourcePoint" />
            <mxPoint x="510" y="380" as="targetPoint" />
          </mxGeometry>
        </mxCell>
        <mxCell id="pJhbr_ECn7s0jkGtvZ8r-18" value="" style="endArrow=classic;startArrow=classic;html=1;rounded=0;exitX=0.5;exitY=0;exitDx=0;exitDy=0;entryX=0.5;entryY=1;entryDx=0;entryDy=0;" edge="1" parent="1" source="pJhbr_ECn7s0jkGtvZ8r-14" target="pJhbr_ECn7s0jkGtvZ8r-13">
          <mxGeometry width="50" height="50" relative="1" as="geometry">
            <mxPoint x="460" y="430" as="sourcePoint" />
            <mxPoint x="510" y="380" as="targetPoint" />
          </mxGeometry>
        </mxCell>
        <mxCell id="pJhbr_ECn7s0jkGtvZ8r-21" value="" style="endArrow=classic;startArrow=classic;html=1;rounded=0;exitX=1;exitY=0.5;exitDx=0;exitDy=0;" edge="1" parent="1" source="pJhbr_ECn7s0jkGtvZ8r-15" target="pJhbr_ECn7s0jkGtvZ8r-13">
          <mxGeometry width="50" height="50" relative="1" as="geometry">
            <mxPoint x="460" y="430" as="sourcePoint" />
            <mxPoint x="510" y="380" as="targetPoint" />
          </mxGeometry>
        </mxCell>
        <mxCell id="pJhbr_ECn7s0jkGtvZ8r-22" value="ES&lt;br&gt;pedido" style="rhombus;whiteSpace=wrap;html=1;" vertex="1" parent="1">
          <mxGeometry x="-50" width="80" height="80" as="geometry" />
        </mxCell>
        <mxCell id="pJhbr_ECn7s0jkGtvZ8r-29" style="edgeStyle=orthogonalEdgeStyle;rounded=0;orthogonalLoop=1;jettySize=auto;html=1;exitX=0;exitY=0.5;exitDx=0;exitDy=0;entryX=1;entryY=0.5;entryDx=0;entryDy=0;" edge="1" parent="1" source="pJhbr_ECn7s0jkGtvZ8r-23" target="pJhbr_ECn7s0jkGtvZ8r-27">
          <mxGeometry relative="1" as="geometry" />
        </mxCell>
        <mxCell id="pJhbr_ECn7s0jkGtvZ8r-23" value="Pide" style="rhombus;whiteSpace=wrap;html=1;" vertex="1" parent="1">
          <mxGeometry x="130" y="170" width="80" height="80" as="geometry" />
        </mxCell>
        <mxCell id="pJhbr_ECn7s0jkGtvZ8r-31" style="edgeStyle=orthogonalEdgeStyle;rounded=0;orthogonalLoop=1;jettySize=auto;html=1;exitX=0.5;exitY=0;exitDx=0;exitDy=0;entryX=0.5;entryY=1;entryDx=0;entryDy=0;" edge="1" parent="1" source="pJhbr_ECn7s0jkGtvZ8r-27" target="pJhbr_ECn7s0jkGtvZ8r-22">
          <mxGeometry relative="1" as="geometry" />
        </mxCell>
        <mxCell id="pJhbr_ECn7s0jkGtvZ8r-27" value="Prestamo" style="rounded=0;whiteSpace=wrap;html=1;" vertex="1" parent="1">
          <mxGeometry x="-70" y="180" width="120" height="60" as="geometry" />
        </mxCell>
        <mxCell id="pJhbr_ECn7s0jkGtvZ8r-32" value="" style="endArrow=classic;html=1;rounded=0;exitX=1;exitY=0.5;exitDx=0;exitDy=0;entryX=0;entryY=0.5;entryDx=0;entryDy=0;" edge="1" parent="1" source="pJhbr_ECn7s0jkGtvZ8r-22" target="pJhbr_ECn7s0jkGtvZ8r-1">
          <mxGeometry width="50" height="50" relative="1" as="geometry">
            <mxPoint x="460" y="190" as="sourcePoint" />
            <mxPoint x="510" y="140" as="targetPoint" />
            <Array as="points">
              <mxPoint x="320" y="40" />
              <mxPoint x="320" y="160" />
            </Array>
          </mxGeometry>
        </mxCell>
      </root>
    </mxGraphModel>
  </diagram>
</mxfile>
